<svg width="274" height="51" viewBox="0 0 274 51" fill="none" xmlns="http://www.w3.org/2000/svg">
<path d="M240.882 25.9263C239.472 24.9969 237.916 24.3361 236.443 23.51C235.489 22.9731 234.473 22.4981 233.644 21.8166C232.233 20.6601 232.524 18.3885 233.996 17.3972C236.112 15.9929 239.617 16.7777 239.99 19.6482C239.99 19.7102 240.052 19.7515 240.114 19.7515H243.308C243.391 19.7515 243.454 19.6895 243.433 19.6069C243.267 17.6244 242.5 15.9723 241.089 14.919C239.741 13.9071 238.206 13.3702 236.568 13.3702C228.127 13.3702 227.359 22.271 231.901 25.0795C232.42 25.41 236.879 27.6403 238.455 28.6109C240.032 29.5816 240.529 31.3576 239.845 32.7619C239.223 34.0423 237.605 34.9303 235.987 34.827C234.224 34.7238 232.855 33.7738 232.378 32.2869C232.295 32.0184 232.254 31.5021 232.254 31.275C232.254 31.213 232.192 31.1511 232.129 31.1511H228.666C228.604 31.1511 228.541 31.213 228.541 31.275C228.541 33.7738 229.164 35.1574 230.864 36.4172C232.461 37.615 234.203 38.1106 236.008 38.1106C240.737 38.1106 243.184 35.4466 243.682 32.6793C244.117 29.9739 243.308 27.5371 240.882 25.9263Z" fill="#161616"/>
<path d="M90.4943 13.8245H88.9595H87.2795C87.2173 13.8245 87.1758 13.8658 87.1551 13.9071L84.3137 23.2416C84.2722 23.3655 84.1063 23.3655 84.0648 23.2416L81.2234 13.9071C81.2026 13.8452 81.1612 13.8245 81.0989 13.8245H79.419H77.8842H75.8102C75.748 13.8245 75.6857 13.8865 75.6857 13.9484V37.7802C75.6857 37.8421 75.748 37.9041 75.8102 37.9041H79.2738C79.336 37.9041 79.3982 37.8421 79.3982 37.7802V19.6689C79.3982 19.5243 79.6056 19.5037 79.6471 19.6276L82.5093 29.024L82.7167 29.6848C82.7374 29.7468 82.7789 29.7674 82.8411 29.7674H85.4959C85.5581 29.7674 85.5996 29.7261 85.6203 29.6848L85.8277 29.024L88.6899 19.6276C88.7313 19.483 88.9387 19.5243 88.9387 19.6689V37.7802C88.9387 37.8421 89.001 37.9041 89.0632 37.9041H92.5268C92.589 37.9041 92.6513 37.8421 92.6513 37.7802V13.9484C92.6513 13.8865 92.589 13.8245 92.5268 13.8245H90.4943Z" fill="#161616"/>
<path d="M187.849 13.8245C187.787 13.8245 187.745 13.8658 187.725 13.9071L184.883 23.2416C184.842 23.3655 184.676 23.3655 184.634 23.2416L181.793 13.9071C181.772 13.8452 181.731 13.8245 181.668 13.8245H176.4C176.338 13.8245 176.276 13.8865 176.276 13.9484V37.7802C176.276 37.8421 176.338 37.9041 176.4 37.9041H179.864C179.926 37.9041 179.988 37.8421 179.988 37.7802V19.6689C179.988 19.5243 180.196 19.5037 180.237 19.6276L183.1 29.024L183.307 29.6848C183.328 29.7468 183.369 29.7674 183.431 29.7674H186.086C186.148 29.7674 186.19 29.7261 186.211 29.6848L186.418 29.024L189.28 19.6276C189.322 19.483 189.529 19.5243 189.529 19.6689V37.7802C189.529 37.8421 189.591 37.9041 189.653 37.9041H193.117C193.179 37.9041 193.241 37.8421 193.241 37.7802V13.9484C193.241 13.8865 193.179 13.8245 193.117 13.8245H187.849Z" fill="#161616"/>
<path d="M143.174 13.8245H136.724H133.261H126.81C126.748 13.8245 126.686 13.8865 126.686 13.9484V16.9222C126.686 16.9842 126.748 17.0461 126.81 17.0461H133.136V37.7802C133.136 37.8421 133.198 37.9041 133.261 37.9041H136.724C136.786 37.9041 136.849 37.8421 136.849 37.7802V17.0461H143.174C143.237 17.0461 143.299 16.9842 143.299 16.9222V13.9484C143.299 13.8865 143.257 13.8245 143.174 13.8245Z" fill="#161616"/>
<path d="M163.604 37.9041H166.756C166.839 37.9041 166.901 37.8215 166.881 37.7388L160.368 13.8245C160.347 13.7626 160.306 13.7419 160.244 13.7419H159.041H156.925H155.722C155.66 13.7419 155.619 13.7832 155.598 13.8245L149.085 37.7388C149.065 37.8215 149.127 37.9041 149.21 37.9041H152.362C152.425 37.9041 152.466 37.8628 152.487 37.8215L154.374 30.8619C154.395 30.8 154.436 30.7793 154.499 30.7793H161.467C161.53 30.7793 161.571 30.8206 161.592 30.8619L163.479 37.8215C163.5 37.8628 163.562 37.9041 163.604 37.9041ZM155.328 27.3718L157.859 18.0581C157.9 17.9341 158.066 17.9341 158.107 18.0581L160.638 27.3718C160.659 27.4544 160.596 27.5371 160.513 27.5371H155.453C155.37 27.5371 155.308 27.4544 155.328 27.3718Z" fill="#161616"/>
<path d="M217.362 37.9041H220.515C220.598 37.9041 220.66 37.8215 220.639 37.7388L214.127 13.8245C214.106 13.7626 214.065 13.7419 214.002 13.7419H212.8H210.684H209.481C209.419 13.7419 209.377 13.7832 209.357 13.8245L202.844 37.7388C202.823 37.8215 202.886 37.9041 202.969 37.9041H206.121C206.183 37.9041 206.225 37.8628 206.246 37.8215L208.133 30.8619C208.154 30.8 208.195 30.7793 208.257 30.7793H215.226C215.288 30.7793 215.33 30.8206 215.351 30.8619L217.238 37.8215C217.259 37.8628 217.3 37.9041 217.362 37.9041ZM209.087 27.3718L211.617 18.0581C211.659 17.9341 211.825 17.9341 211.866 18.0581L214.397 27.3718C214.417 27.4544 214.355 27.5371 214.272 27.5371H209.211C209.128 27.5371 209.066 27.4544 209.087 27.3718Z" fill="#161616"/>
<path d="M106.713 34.3726V26.9794C106.713 26.9175 106.775 26.8555 106.838 26.8555H116.067C116.129 26.8555 116.191 26.7936 116.191 26.7316V23.7578C116.191 23.6959 116.129 23.6339 116.067 23.6339H106.838C106.775 23.6339 106.713 23.572 106.713 23.51V17.1907C106.713 17.1287 106.775 17.0668 106.838 17.0668H117.332C117.394 17.0668 117.457 17.0048 117.457 16.9428V13.969C117.457 13.9071 117.394 13.8451 117.332 13.8451H106.713H103.125C103.063 13.8451 103.001 13.9071 103.001 13.969V17.0668V23.6546V26.8762V34.5172V37.7801C103.001 37.8421 103.063 37.904 103.125 37.904H106.713H117.768C117.83 37.904 117.892 37.8421 117.892 37.7801V34.6411C117.892 34.5792 117.83 34.5172 117.768 34.5172H106.817C106.755 34.4965 106.713 34.4552 106.713 34.3726Z" fill="#161616"/>
<path d="M272.532 37.6975L260.544 25.3686C260.502 25.3273 260.502 25.2447 260.544 25.2034L271.329 14.0517C271.412 13.969 271.349 13.8451 271.246 13.8451H266.828C266.786 13.8451 266.766 13.8658 266.745 13.8864L257.599 23.3448C257.516 23.4274 257.391 23.3654 257.391 23.2622V13.969C257.391 13.9071 257.329 13.8451 257.267 13.8451H253.803C253.741 13.8451 253.679 13.9071 253.679 13.969V37.8008C253.679 37.8627 253.741 37.9247 253.803 37.9247H257.267C257.329 37.9247 257.391 37.8627 257.391 37.8008V27.3099C257.391 27.2066 257.536 27.1446 257.599 27.2273L267.969 37.8834C267.989 37.904 268.031 37.9247 268.052 37.9247H272.469C272.552 37.904 272.614 37.7595 272.532 37.6975Z" fill="#161616"/>
<path d="M52.021 1L31.0526 16.4886L34.9517 7.36063L52.021 1Z" fill="#E17726" stroke="#E17726" stroke-width="0.5" stroke-linecap="round" stroke-linejoin="round"/>
<path d="M3.65488 1L24.4366 16.6331L20.7241 7.36063L3.65488 1Z" fill="#E27625" stroke="#E27625" stroke-width="0.5" stroke-linecap="round" stroke-linejoin="round"/>
<path d="M44.4716 36.9128L38.8924 45.4212L50.8388 48.7047L54.261 37.0986L44.4716 36.9128Z" fill="#E27625" stroke="#E27625" stroke-width="0.5" stroke-linecap="round" stroke-linejoin="round"/>
<path d="M1.43552 37.0986L4.83692 48.7047L16.7626 45.4212L11.2042 36.9128L1.43552 37.0986Z" fill="#E27625" stroke="#E27625" stroke-width="0.5" stroke-linecap="round" stroke-linejoin="round"/>
<path d="M16.1197 22.5394L12.8012 27.5371L24.6232 28.074L24.2291 15.3734L16.1197 22.5394Z" fill="#E27625" stroke="#E27625" stroke-width="0.5" stroke-linecap="round" stroke-linejoin="round"/>
<path d="M39.5561 22.5394L31.3222 15.2288L31.0526 28.074L42.8745 27.537L39.5561 22.5394Z" fill="#E27625" stroke="#E27625" stroke-width="0.5" stroke-linecap="round" stroke-linejoin="round"/>
<path d="M16.7626 45.4212L23.918 41.9724L17.7581 37.1813L16.7626 45.4212Z" fill="#E27625" stroke="#E27625" stroke-width="0.5" stroke-linecap="round" stroke-linejoin="round"/>
<path d="M31.7578 41.9724L38.8924 45.4212L37.9176 37.1813L31.7578 41.9724Z" fill="#E27625" stroke="#E27625" stroke-width="0.5" stroke-linecap="round" stroke-linejoin="round"/>
<path d="M38.8924 45.4212L31.7578 41.9724L32.3385 46.5984L32.2763 48.5602L38.8924 45.4212Z" fill="#D5BFB2" stroke="#D5BFB2" stroke-width="0.5" stroke-linecap="round" stroke-linejoin="round"/>
<path d="M16.7625 45.4212L23.3994 48.5602L23.3579 46.5984L23.9179 41.9724L16.7625 45.4212Z" fill="#D5BFB2" stroke="#D5BFB2" stroke-width="0.5" stroke-linecap="round" stroke-linejoin="round"/>
<path d="M23.524 34.1249L17.5922 32.3901L21.7818 30.4696L23.524 34.1249Z" fill="#233447" stroke="#233447" stroke-width="0.5" stroke-linecap="round" stroke-linejoin="round"/>
<path d="M32.1517 34.1249L33.8939 30.4696L38.1042 32.3901L32.1517 34.1249Z" fill="#233447" stroke="#233447" stroke-width="0.5" stroke-linecap="round" stroke-linejoin="round"/>
<path d="M16.7626 45.4212L17.7996 36.9128L11.2042 37.0987L16.7626 45.4212Z" fill="#CC6228" stroke="#CC6228" stroke-width="0.5" stroke-linecap="round" stroke-linejoin="round"/>
<path d="M37.8761 36.9128L38.8924 45.4212L44.4715 37.0987L37.8761 36.9128Z" fill="#CC6228" stroke="#CC6228" stroke-width="0.5" stroke-linecap="round" stroke-linejoin="round"/>
<path d="M42.8745 27.5371L31.0525 28.074L32.1518 34.1249L33.8939 30.4696L38.1042 32.3902L42.8745 27.5371Z" fill="#CC6228" stroke="#CC6228" stroke-width="0.5" stroke-linecap="round" stroke-linejoin="round"/>
<path d="M17.5922 32.3902L21.7817 30.4696L23.5239 34.1249L24.6231 28.074L12.8012 27.5371L17.5922 32.3902Z" fill="#CC6228" stroke="#CC6228" stroke-width="0.5" stroke-linecap="round" stroke-linejoin="round"/>
<path d="M12.8012 27.5371L17.7582 37.1813L17.5922 32.3902L12.8012 27.5371Z" fill="#E27525" stroke="#E27525" stroke-width="0.5" stroke-linecap="round" stroke-linejoin="round"/>
<path d="M38.1044 32.3902L37.9177 37.1813L42.8746 27.5371L38.1044 32.3902Z" fill="#E27525" stroke="#E27525" stroke-width="0.5" stroke-linecap="round" stroke-linejoin="round"/>
<path d="M24.6232 28.074L23.524 34.1249L24.9136 41.2703L25.2247 31.8532L24.6232 28.074Z" fill="#E27525" stroke="#E27525" stroke-width="0.5" stroke-linecap="round" stroke-linejoin="round"/>
<path d="M31.0526 28.074L30.4719 31.8326L30.7623 41.2703L32.1519 34.1249L31.0526 28.074Z" fill="#E27525" stroke="#E27525" stroke-width="0.5" stroke-linecap="round" stroke-linejoin="round"/>
<path d="M32.1519 34.1249L30.7623 41.2703L31.7578 41.9724L37.9177 37.1813L38.1043 32.3902L32.1519 34.1249Z" fill="#F5841F" stroke="#F5841F" stroke-width="0.5" stroke-linecap="round" stroke-linejoin="round"/>
<path d="M17.5922 32.3902L17.7582 37.1813L23.918 41.9724L24.9135 41.2703L23.524 34.1249L17.5922 32.3902Z" fill="#F5841F" stroke="#F5841F" stroke-width="0.5" stroke-linecap="round" stroke-linejoin="round"/>
<path d="M32.2763 48.5602L32.3385 46.5983L31.7992 46.144H23.8765L23.358 46.5983L23.3994 48.5602L16.7626 45.4212L19.0855 47.3211L23.7935 50.5634H31.8615L36.5902 47.3211L38.8924 45.4212L32.2763 48.5602Z" fill="#C0AC9D" stroke="#C0AC9D" stroke-width="0.5" stroke-linecap="round" stroke-linejoin="round"/>
<path d="M31.7578 41.9724L30.7622 41.2702H24.9135L23.918 41.9724L23.358 46.5983L23.8765 46.144H31.7993L32.3385 46.5983L31.7578 41.9724Z" fill="#161616" stroke="#161616" stroke-width="0.5" stroke-linecap="round" stroke-linejoin="round"/>
<path d="M52.9128 17.5005L54.6757 8.95079L52.021 1L31.7578 15.9723L39.5561 22.5394L50.5692 25.7404L52.9958 22.9111L51.938 22.147L53.618 20.6188L52.3321 19.6276L54.0121 18.3472L52.9128 17.5005Z" fill="#763E1A" stroke="#763E1A" stroke-width="0.5" stroke-linecap="round" stroke-linejoin="round"/>
<path d="M1 8.95079L2.78366 17.5005L1.64295 18.3472L3.34365 19.6276L2.05775 20.6188L3.73771 22.147L2.67996 22.9111L5.10657 25.7404L16.1196 22.5394L23.918 15.9723L3.65475 1L1 8.95079Z" fill="#763E1A" stroke="#763E1A" stroke-width="0.5" stroke-linecap="round" stroke-linejoin="round"/>
<path d="M50.5693 25.7404L39.5562 22.5394L42.8746 27.5371L37.9177 37.1813L44.4716 37.0986H54.261L50.5693 25.7404Z" fill="#F5841F" stroke="#F5841F" stroke-width="0.5" stroke-linecap="round" stroke-linejoin="round"/>
<path d="M16.1196 22.5394L5.10651 25.7404L1.43549 37.0986H11.2041L17.7581 37.1813L12.8011 27.5371L16.1196 22.5394Z" fill="#F5841F" stroke="#F5841F" stroke-width="0.5" stroke-linecap="round" stroke-linejoin="round"/>
<path d="M31.0526 28.074L31.7578 15.9723L34.9518 7.36066H20.7239L23.9179 15.9723L24.6231 28.074L24.8927 31.8739L24.9135 41.2703H30.7622L30.783 31.8739L31.0526 28.074Z" fill="#F5841F" stroke="#F5841F" stroke-width="0.5" stroke-linecap="round" stroke-linejoin="round"/>
</svg>
